<svg width="100" height="100" viewBox="0 0 100 100" fill="none" xmlns="http://www.w3.org/2000/svg">
<g clip-path="url(#clip0_486_60874)">
<rect width="100" height="100" fill="white" fill-opacity="0.01"/>
<path d="M75.4756 45.6555C76.4574 45.6555 77.3989 45.2655 78.0931 44.5713C78.7874 43.8771 79.1774 42.9355 79.1774 41.9537V37.2237C79.1774 36.2419 78.7874 35.3003 78.0931 34.6061C77.3989 33.9119 76.4574 33.5219 75.4756 33.5219C74.6613 33.5195 73.8698 33.2525 73.2206 32.7609C72.5714 32.2694 72.0997 31.5801 71.8766 30.7969C71.1542 28.0578 70.0646 25.429 68.6375 22.982C68.2411 22.2705 68.0868 21.4492 68.1981 20.6423C68.3094 19.8354 68.6802 19.0866 69.2545 18.509C69.5996 18.1651 69.8734 17.7564 70.0603 17.3065C70.2471 16.8565 70.3433 16.3741 70.3433 15.8869C70.3433 15.3997 70.2471 14.9173 70.0603 14.4673C69.8734 14.0173 69.5996 13.6087 69.2545 13.2648L65.9126 9.92288C65.5687 9.57777 65.16 9.30395 64.7101 9.11711C64.2601 8.93027 63.7777 8.8341 63.2905 8.8341C62.8033 8.8341 62.3209 8.93027 61.8709 9.11711C61.4209 9.30395 61.0123 9.57777 60.6684 9.92288C60.0907 10.4972 59.3419 10.8679 58.535 10.9792C57.7281 11.0905 56.9069 10.9363 56.1954 10.5398C53.7336 9.1427 51.1088 8.05479 48.3805 7.30077C47.6015 7.08766 46.9135 6.62563 46.4215 5.98514C45.9296 5.34465 45.6606 4.56083 45.6555 3.75321C45.6623 3.26278 45.5716 2.77588 45.3886 2.3208C45.2057 1.86573 44.9341 1.45155 44.5896 1.10235C44.2452 0.753138 43.8348 0.475859 43.3823 0.286619C42.9298 0.0973793 42.4442 -4.72926e-05 41.9537 1.72217e-08H37.2237C36.2419 1.72217e-08 35.3003 0.39001 34.6061 1.08423C33.9119 1.77845 33.5219 2.72002 33.5219 3.7018C33.5255 4.51161 33.2598 5.29964 32.7664 5.94187C32.2731 6.5841 31.5803 7.04406 30.7969 7.24936C28.0718 8.01254 25.448 9.10001 22.982 10.4884C22.2808 10.9086 21.4588 11.0813 20.6478 10.9788C19.8367 10.8762 19.0836 10.5044 18.509 9.92288C18.1651 9.57777 17.7564 9.30395 17.3065 9.11711C16.8565 8.93027 16.3741 8.8341 15.8869 8.8341C15.3997 8.8341 14.9173 8.93027 14.4673 9.11711C14.0173 9.30395 13.6087 9.57777 13.2648 9.92288L9.92288 13.2648C9.57777 13.6087 9.30395 14.0173 9.11711 14.4673C8.93027 14.9173 8.8341 15.3997 8.8341 15.8869C8.8341 16.3741 8.93027 16.8565 9.11711 17.3065C9.30395 17.7564 9.57777 18.1651 9.92288 18.509C10.4972 19.0866 10.8679 19.8354 10.9792 20.6423C11.0905 21.4492 10.9363 22.2705 10.5398 22.982C9.11274 25.429 8.02317 28.0578 7.30077 30.7969C7.08535 31.5844 6.61562 32.2786 5.96471 32.7715C5.3138 33.2643 4.51821 33.5281 3.7018 33.5219C2.72002 33.5219 1.77845 33.9119 1.08423 34.6061C0.39001 35.3003 0 36.2419 0 37.2237L0 41.9537C0 42.9355 0.39001 43.8771 1.08423 44.5713C1.77845 45.2655 2.72002 45.6555 3.7018 45.6555C4.52499 45.6523 5.32579 45.9235 5.97758 46.4263C6.62938 46.9291 7.09498 47.6348 7.30077 48.4319C8.03276 51.1514 9.12194 53.762 10.5398 56.1954C10.9363 56.9069 11.0905 57.7281 10.9792 58.535C10.8679 59.3419 10.4972 60.0907 9.92288 60.6684C9.57777 61.0123 9.30395 61.4209 9.11711 61.8709C8.93027 62.3209 8.8341 62.8033 8.8341 63.2905C8.8341 63.7777 8.93027 64.2601 9.11711 64.7101C9.30395 65.16 9.57777 65.5687 9.92288 65.9126L13.2648 69.2545C13.6087 69.5996 14.0173 69.8734 14.4673 70.0603C14.9173 70.2471 15.3997 70.3433 15.8869 70.3433C16.3741 70.3433 16.8565 70.2471 17.3065 70.0603C17.7564 69.8734 18.1651 69.5996 18.509 69.2545C19.0866 68.6802 19.8354 68.3094 20.6423 68.1981C21.4492 68.0868 22.2705 68.2411 22.982 68.6375C25.4375 70.0474 28.064 71.136 30.7969 71.8766C31.5803 72.0819 32.2731 72.5419 32.7664 73.1841C33.2598 73.8263 33.5255 74.6143 33.5219 75.4242C33.5219 76.4059 33.9119 77.3475 34.6061 78.0417C35.3003 78.736 36.2419 79.126 37.2237 79.126H41.9537C42.9355 79.126 43.8771 78.736 44.5713 78.0417C45.2655 77.3475 45.6555 76.4059 45.6555 75.4242C45.6606 74.6165 45.9296 73.8327 46.4215 73.1922C46.9135 72.5517 47.6015 72.0897 48.3805 71.8766C51.1164 71.1449 53.744 70.0558 56.1954 68.6375C56.9069 68.2411 57.7281 68.0868 58.535 68.1981C59.3419 68.3094 60.0907 68.6802 60.6684 69.2545C61.0123 69.5996 61.4209 69.8734 61.8709 70.0603C62.3209 70.2471 62.8033 70.3433 63.2905 70.3433C63.7777 70.3433 64.2601 70.2471 64.7101 70.0603C65.16 69.8734 65.5687 69.5996 65.9126 69.2545L67.6093 67.6093L69.2545 65.9126C69.5996 65.5687 69.8734 65.16 70.0603 64.7101C70.2471 64.2601 70.3433 63.7777 70.3433 63.2905C70.3433 62.8033 70.2471 62.3209 70.0603 61.8709C69.8734 61.4209 69.5996 61.0123 69.2545 60.6684C68.6802 60.0907 68.3094 59.3419 68.1981 58.535C68.0868 57.7281 68.2411 56.9069 68.6375 56.1954C70.0554 53.762 71.1446 51.1514 71.8766 48.4319C72.0903 47.6392 72.558 46.9384 73.208 46.4369C73.8581 45.9355 74.6546 45.661 75.4756 45.6555Z" fill="#0065FF"/>
<path d="M39.5374 65.7584L37.2238 65.6556C30.3831 65.0485 24.052 61.7871 19.5863 56.5696C15.1206 51.3522 12.8754 44.5936 13.3315 37.7411C13.7876 30.8887 16.9087 24.4872 22.0264 19.9076C27.1442 15.328 33.8517 12.9344 40.7125 13.2393C47.5733 13.5442 54.042 16.5235 58.7333 21.539C63.4246 26.5546 65.9655 33.2077 65.8119 40.0736C65.6583 46.9395 62.8224 53.4723 57.9114 58.273C53.0005 63.0737 46.405 65.7606 39.5374 65.7584ZM39.6402 14.4473C33.1608 14.4227 26.922 16.9007 22.2252 21.3643C17.5284 25.8279 14.7363 31.9326 14.4312 38.4049C14.1262 44.8772 16.3318 51.2174 20.5879 56.103C24.8441 60.9886 30.8221 64.0424 37.2752 64.6273C40.9522 64.9677 44.659 64.494 48.1322 63.2398C51.6053 61.9856 54.7596 59.9817 57.3707 57.3706C59.9818 54.7595 61.9857 51.6052 63.2399 48.132C64.4941 44.6589 64.9678 40.9521 64.6274 37.2751C64.1075 31.423 61.5464 25.94 57.392 21.7856C53.2376 17.6312 47.7546 15.07 41.9025 14.5502L39.6402 14.4473Z" fill="#2684FF"/>
<path opacity="0.2" d="M77.5322 43.7018C77.1605 43.0192 77.0197 42.2347 77.1309 41.4655C77.2421 40.6963 77.5993 39.9837 78.1492 39.4344C78.7798 38.7844 79.1463 37.9231 79.1774 37.018C79.1248 36.0723 78.7117 35.1827 78.0231 34.5324C77.3345 33.882 76.4228 33.5204 75.4756 33.5218C74.6613 33.5195 73.8699 33.2525 73.2207 32.7609C72.5715 32.2694 72.0998 31.58 71.8767 30.7969L71.7224 30.2828C71.0464 30.4426 70.4253 30.7798 69.9229 31.2596C69.3767 31.8164 68.6599 32.1746 67.8866 32.277C67.1134 32.3795 66.328 32.2205 65.6556 31.8252C63.3302 30.4838 60.8419 29.447 58.252 28.7403C57.4915 28.5441 56.8193 28.0976 56.3436 27.4726C55.8679 26.8477 55.6165 26.0809 55.6299 25.2956C55.6299 24.8254 55.5365 24.3598 55.355 23.926C55.1735 23.4922 54.9076 23.0989 54.5727 22.7688C54.2378 22.4387 53.8407 22.1784 53.4043 22.0032C52.9679 21.828 52.5011 21.7412 52.0309 21.7481H47.5579C46.617 21.7481 45.7147 22.1218 45.0494 22.7871C44.3841 23.4524 44.0103 24.3547 44.0103 25.2956C44.0148 26.0787 43.7599 26.8412 43.2856 27.4643C42.8113 28.0874 42.1442 28.5361 41.3882 28.7403C38.7819 29.4466 36.2766 30.4833 33.9332 31.8252C33.2608 32.2205 32.4754 32.3795 31.7022 32.277C30.9289 32.1746 30.2121 31.8164 29.6659 31.2596C29.3361 30.927 28.9436 30.6629 28.5112 30.4827C28.0788 30.3025 27.615 30.2097 27.1466 30.2097C26.6781 30.2097 26.2143 30.3025 25.7819 30.4827C25.3495 30.6629 24.9571 30.927 24.6273 31.2596L21.4911 34.3959C21.1584 34.7257 20.8943 35.1181 20.7142 35.5505C20.534 35.9829 20.4412 36.4467 20.4412 36.9152C20.4412 37.3836 20.534 37.8474 20.7142 38.2798C20.8943 38.7122 21.1584 39.1046 21.4911 39.4344C22.0479 39.9807 22.406 40.6975 22.5085 41.4707C22.611 42.244 22.4519 43.0293 22.0566 43.7018C20.736 46.0555 19.7004 48.5581 18.9718 51.1568C18.7675 51.9128 18.3189 52.5799 17.6957 53.0542C17.0726 53.5285 16.3101 53.7833 15.5271 53.7789C14.5862 53.7789 13.6838 54.1527 13.0185 54.818C12.3533 55.4833 11.9795 56.3856 11.9795 57.3265V61.7995C11.9795 62.7403 12.3533 63.6427 13.0185 64.308C13.6838 64.9733 14.5862 65.347 15.5271 65.347C16.3101 65.3426 17.0726 65.5974 17.6957 66.0717C18.3189 66.546 18.7675 67.2132 18.9718 67.9691C19.0232 68.2262 19.126 68.4833 19.1774 68.7403C19.7449 68.3856 20.3968 68.189 21.0657 68.1709C21.7347 68.1528 22.3963 68.3139 22.9821 68.6375C25.4376 70.0474 28.064 71.136 30.797 71.8766C31.5803 72.0819 32.2732 72.5418 32.7665 73.1841C33.2598 73.8263 33.5256 74.6143 33.5219 75.4241C33.5219 75.9103 33.6177 76.3916 33.8037 76.8408C33.9897 77.2899 34.2624 77.698 34.6061 78.0417C34.9499 78.3855 35.358 78.6581 35.8071 78.8442C36.2562 79.0302 36.7376 79.1259 37.2237 79.1259H41.9538C42.9356 79.1259 43.8771 78.7359 44.5714 78.0417C45.2656 77.3475 45.6556 76.4059 45.6556 75.4241C45.6606 74.6165 45.9296 73.8327 46.4216 73.1922C46.9136 72.5517 47.6015 72.0897 48.3805 71.8766L50.3857 71.2596H48.7404C46.5335 71.0549 44.4305 70.2259 42.6774 68.8697C40.9243 67.5136 39.5937 65.6862 38.8411 63.6015C38.0885 61.5168 37.9451 59.2608 38.4276 57.0976C38.9102 54.9343 39.9988 52.9532 41.566 51.386C43.1332 49.8187 45.1144 48.7302 47.2776 48.2476C49.4409 47.765 51.6968 47.9084 53.7815 48.661C55.8662 49.4136 57.6936 50.7443 59.0498 52.4974C60.4059 54.2505 61.2349 56.3535 61.4396 58.5604C61.6156 60.3483 61.3726 62.1527 60.7301 63.8304C60.0875 65.5081 59.0631 67.0132 57.7378 68.2262C58.2758 68.1782 58.8177 68.2501 59.3244 68.4368C59.8312 68.6235 60.2902 68.9203 60.6684 69.3059C61.0123 69.651 61.421 69.9248 61.871 70.1117C62.3209 70.2985 62.8033 70.3947 63.2905 70.3947C63.7778 70.3947 64.2602 70.2985 64.7101 70.1117C65.1601 69.9248 65.5687 69.651 65.9127 69.3059L67.6093 67.6607L69.2546 65.964C69.5997 65.6201 69.8735 65.2114 70.0603 64.7615C70.2472 64.3115 70.3433 63.8291 70.3433 63.3419C70.3433 62.8547 70.2472 62.3723 70.0603 61.9223C69.8735 61.4723 69.5997 61.0637 69.2546 60.7198C68.6803 60.1421 68.3095 59.3933 68.1982 58.5864C68.0869 57.7795 68.2411 56.9583 68.6376 56.2468C70.0555 53.8134 71.1447 51.2028 71.8767 48.4833C72.0903 47.6906 72.558 46.9898 73.2081 46.4883C73.8581 45.9869 74.6547 45.7124 75.4756 45.7069C76.4303 45.6942 77.3463 45.3278 78.0463 44.6786C77.8967 44.342 77.725 44.0157 77.5322 43.7018Z" fill="url(#paint0_linear_486_60874)"/>
<path d="M99.9999 64.4217V59.9486C99.9999 59.0078 99.6262 58.1054 98.9609 57.4401C98.2956 56.7748 97.3933 56.4011 96.4524 56.4011C95.6759 56.4029 94.9209 56.1462 94.3065 55.6714C93.6921 55.1966 93.2532 54.5308 93.0591 53.779C92.335 51.1707 91.281 48.6655 89.9228 46.324C89.5511 45.6414 89.4103 44.8569 89.5215 44.0877C89.6327 43.3185 89.99 42.6059 90.5398 42.0566C90.8725 41.7268 91.1365 41.3344 91.3167 40.902C91.4969 40.4696 91.5897 40.0058 91.5897 39.5373C91.5897 39.0689 91.4969 38.6051 91.3167 38.1727C91.1365 37.7403 90.8725 37.3479 90.5398 37.0181L87.3521 33.8818C87.0223 33.5491 86.6299 33.2851 86.1975 33.1049C85.7651 32.9247 85.3013 32.8319 84.8328 32.8319C84.3644 32.8319 83.9006 32.9247 83.4682 33.1049C83.0358 33.2851 82.6434 33.5491 82.3136 33.8818C81.7673 34.4386 81.0505 34.7967 80.2773 34.8992C79.504 35.0017 78.7187 34.8426 78.0462 34.4474C75.7072 33.0966 73.2007 32.0594 70.5912 31.3625C69.8352 31.1583 69.1681 30.7096 68.6938 30.0865C68.2195 29.4634 67.9647 28.7009 67.9691 27.9178C67.9691 26.9769 67.5953 26.0746 66.93 25.4093C66.2647 24.744 65.3624 24.3702 64.4215 24.3702H59.9485C59.0077 24.3702 58.1053 24.744 57.44 25.4093C56.7747 26.0746 56.401 26.9769 56.401 27.9178C56.4054 28.7009 56.1506 29.4634 55.6763 30.0865C55.202 30.7096 54.5348 31.1583 53.7789 31.3625C51.1725 32.0688 48.6672 33.1055 46.3238 34.4474C45.6514 34.8426 44.8661 35.0017 44.0928 34.8992C43.3195 34.7967 42.6028 34.4386 42.0565 33.8818C41.7267 33.5491 41.3343 33.2851 40.9019 33.1049C40.4695 32.9247 40.0057 32.8319 39.5372 32.8319C39.0688 32.8319 38.605 32.9247 38.1726 33.1049C37.7402 33.2851 37.3477 33.5491 37.0179 33.8818L33.8817 37.0181C33.549 37.3479 33.285 37.7403 33.1048 38.1727C32.9246 38.6051 32.8318 39.0689 32.8318 39.5373C32.8318 40.0058 32.9246 40.4696 33.1048 40.902C33.285 41.3344 33.549 41.7268 33.8817 42.0566C34.4385 42.6029 34.7966 43.3197 34.8991 44.0929C35.0016 44.8662 34.8425 45.6515 34.4472 46.324C33.1053 48.6673 32.0687 51.1726 31.3624 53.779C31.1581 54.535 30.7095 55.2021 30.0864 55.6764C29.4633 56.1507 28.7007 56.4055 27.9177 56.4011C26.9768 56.4011 26.0745 56.7748 25.4092 57.4401C24.7439 58.1054 24.3701 59.0078 24.3701 59.9486V64.4217C24.3701 65.3625 24.7439 66.2649 25.4092 66.9302C26.0745 67.5955 26.9768 67.9692 27.9177 67.9692C28.7007 67.9648 29.4633 68.2196 30.0864 68.6939C30.7095 69.1682 31.1581 69.8354 31.3624 70.5913C32.0593 73.2009 33.0965 75.7074 34.4472 78.0463C34.8425 78.7188 35.0016 79.5041 34.8991 80.2774C34.7966 81.0506 34.4385 81.7674 33.8817 82.3137C33.549 82.6435 33.285 83.0359 33.1048 83.4683C32.9246 83.9007 32.8318 84.3645 32.8318 84.833C32.8318 85.3014 32.9246 85.7652 33.1048 86.1976C33.285 86.63 33.549 87.0224 33.8817 87.3522L37.0179 90.5399C37.3477 90.8726 37.7402 91.1366 38.1726 91.3168C38.605 91.497 39.0688 91.5898 39.5372 91.5898C40.0057 91.5898 40.4695 91.497 40.9019 91.3168C41.3343 91.1366 41.7267 90.8726 42.0565 90.5399C42.6058 89.9901 43.3183 89.6329 44.0876 89.5217C44.8568 89.4104 45.6413 89.5512 46.3238 89.9229C48.6654 91.2812 51.1706 92.3351 53.7789 93.0592C54.5307 93.2533 55.1965 93.6922 55.6713 94.3066C56.1461 94.921 56.4028 95.676 56.401 96.4525C56.401 97.3934 56.7747 98.2957 57.44 98.961C58.1053 99.6263 59.0077 100 59.9485 100H64.4215C65.3624 100 66.2647 99.6263 66.93 98.961C67.5953 98.2957 67.9691 97.3934 67.9691 96.4525C67.9673 95.676 68.224 94.921 68.6988 94.3066C69.1736 93.6922 69.8394 93.2533 70.5912 93.0592C73.2029 92.3449 75.7094 91.2905 78.0462 89.9229C78.7288 89.5512 79.5133 89.4104 80.2825 89.5217C81.0517 89.6329 81.7643 89.9901 82.3136 90.5399C82.6434 90.8726 83.0358 91.1366 83.4682 91.3168C83.9006 91.497 84.3644 91.5898 84.8328 91.5898C85.3013 91.5898 85.7651 91.497 86.1975 91.3168C86.6299 91.1366 87.0223 90.8726 87.3521 90.5399L90.5398 87.3522C90.8725 87.0224 91.1365 86.63 91.3167 86.1976C91.4969 85.7652 91.5897 85.3014 91.5897 84.833C91.5897 84.3645 91.4969 83.9007 91.3167 83.4683C91.1365 83.0359 90.8725 82.6435 90.5398 82.3137C89.99 81.7644 89.6327 81.0518 89.5215 80.2826C89.4103 79.5134 89.5511 78.7289 89.9228 78.0463C91.2903 75.7095 92.3448 73.203 93.0591 70.5913C93.2532 69.8395 93.6921 69.1737 94.3065 68.6989C94.9209 68.2241 95.6759 67.9674 96.4524 67.9692C97.3933 67.9692 98.2956 67.5955 98.9609 66.9302C99.6262 66.2649 99.9999 65.3625 99.9999 64.4217ZM73.8303 61.1312C74.1166 64.2197 73.1643 67.2954 71.1829 69.6818C69.2015 72.0682 66.3532 73.5698 63.2647 73.8561C60.1762 74.1425 57.1004 73.1902 54.7141 71.2088C52.3277 69.2273 50.8261 66.3791 50.5398 63.2906C50.398 61.7613 50.5588 60.219 51.013 58.7519C51.4673 57.2848 52.206 55.9215 53.1871 54.7399C55.1686 52.3535 58.0168 50.852 61.1053 50.5656C64.1939 50.2793 67.2696 51.2315 69.656 53.213C72.0424 55.1944 73.5439 58.0427 73.8303 61.1312Z" fill="#00C7E5"/>
<path d="M62.1589 79.6915H60.6165C56.5373 79.3328 52.7146 77.5492 49.819 74.6536C46.9234 71.758 45.1398 67.9353 44.781 63.8561C44.5434 61.2986 44.8722 58.7202 45.7442 56.3042C46.6162 53.8882 48.0098 51.6941 49.826 49.8779C51.6422 48.0617 53.8364 46.6681 56.2523 45.7961C58.6683 44.9241 61.2467 44.5953 63.8042 44.8329C67.8834 45.1916 71.7061 46.9752 74.6017 49.8708C77.4973 52.7664 79.2809 56.5891 79.6397 60.6684C79.8458 63.0911 79.5473 65.5302 78.763 67.8317C77.9786 70.1332 76.7255 72.2469 75.0827 74.0395C73.4399 75.8321 71.4432 77.2644 69.2187 78.2461C66.9943 79.2278 64.5904 79.7375 62.1589 79.743V79.6915ZM62.2104 45.7584C57.9404 45.7044 53.8167 47.3127 50.7109 50.2434C47.605 53.1742 45.7604 57.1977 45.5668 61.4636C45.3732 65.7295 46.8458 69.9036 49.6734 73.1036C52.501 76.3036 56.462 78.2788 60.7193 78.6118C63.1202 78.815 65.5365 78.4916 67.7995 77.6643C70.0625 76.8369 72.1176 75.5256 73.8214 73.8219C75.5251 72.1181 76.8365 70.063 77.6638 67.8C78.4911 65.537 78.8145 63.1207 78.6114 60.7198C78.2755 56.8783 76.5967 53.2779 73.87 50.5512C71.1432 47.8245 67.5429 46.1457 63.7014 45.8098L62.2104 45.7584Z" fill="#00B8D9"/>
<path d="M82.4161 28.7917C86.7606 28.7917 90.2825 25.2699 90.2825 20.9254C90.2825 16.581 86.7606 13.0591 82.4161 13.0591C78.0717 13.0591 74.5498 16.581 74.5498 20.9254C74.5498 25.2699 78.0717 28.7917 82.4161 28.7917Z" fill="#00C7E5"/>
<path d="M20.9767 89.6144C25.3211 89.6144 28.843 86.0925 28.843 81.748C28.843 77.4036 25.3211 73.8817 20.9767 73.8817C16.6322 73.8817 13.1104 77.4036 13.1104 81.748C13.1104 86.0925 16.6322 89.6144 20.9767 89.6144Z" fill="#0065FF"/>
</g>
<defs>
<linearGradient id="paint0_linear_486_60874" x1="16.1492" y1="79.3933" x2="69.6299" y2="25.9126" gradientUnits="userSpaceOnUse">
<stop stop-color="#091E42" stop-opacity="0.11"/>
<stop offset="0.09" stop-color="#091E42" stop-opacity="0.44"/>
<stop offset="0.19" stop-color="#091E42" stop-opacity="0.69"/>
<stop offset="0.32" stop-color="#091E42" stop-opacity="0.87"/>
<stop offset="0.5" stop-color="#091E42" stop-opacity="0.97"/>
<stop offset="1" stop-color="#091E42"/>
</linearGradient>
<clipPath id="clip0_486_60874">
<rect width="100" height="100" fill="white"/>
</clipPath>
</defs>
</svg>
