<svg width="107" height="100" viewBox="0 0 107 100" fill="none" xmlns="http://www.w3.org/2000/svg">
<g clip-path="url(#clip0_486_60869)">
<rect width="107" height="100" fill="white" fill-opacity="0.01"/>
<path d="M30.8742 64.4301C31.0469 65.9399 31.7216 67.3486 32.7906 68.4314C33.8597 69.5142 35.2615 70.2088 36.7726 70.4044C38.2529 70.5877 39.7533 70.2981 41.0581 69.5772C41.2051 69.487 41.3737 69.4377 41.5462 69.4343C41.7188 69.431 41.8891 69.4737 42.0395 69.5581C42.1899 69.6425 42.3149 69.7654 42.4017 69.9142C42.4884 70.063 42.5336 70.2323 42.5327 70.4044V84.8345C31.2523 84.8345 20.434 80.3656 12.4575 72.4108C4.48111 64.456 0 53.667 0 42.4172H14.4694C14.6391 42.4216 14.807 42.3813 14.9562 42.3005C15.1053 42.2197 15.2305 42.1011 15.3193 41.9568C15.408 41.8124 15.457 41.6474 15.4616 41.4781C15.4661 41.3089 15.4259 41.1414 15.345 40.9926C14.7287 39.9548 14.3983 38.7731 14.3871 37.567C14.3759 36.3609 14.6843 35.1733 15.2812 34.1242C15.878 33.0752 16.7422 32.202 17.7861 31.5931C18.83 30.9841 20.0167 30.6609 21.2261 30.6562C22.4355 30.6515 23.6247 30.9655 24.6734 31.5663C25.722 32.1672 26.5929 33.0336 27.198 34.078C27.803 35.1224 28.1207 36.3076 28.1189 37.5137C28.1171 38.7198 27.7959 39.9041 27.1878 40.9466C27.095 41.0966 27.0451 41.269 27.0436 41.4453C27.042 41.6215 27.0889 41.7947 27.1791 41.9463C27.2694 42.0978 27.3995 42.2218 27.5553 42.3048C27.7112 42.3878 27.8869 42.4267 28.0633 42.4172H42.5327V56.8474C42.5422 57.0233 42.5033 57.1986 42.42 57.354C42.3368 57.5094 42.2124 57.6392 42.0605 57.7291C41.9085 57.8191 41.7348 57.8659 41.5581 57.8644C41.3814 57.8628 41.2085 57.8131 41.0581 57.7205C40.0284 57.106 38.8481 56.7879 37.6481 56.8014C36.6844 56.808 35.7328 57.0169 34.8553 57.4145C33.9778 57.8121 33.1941 58.3895 32.5552 59.1091C31.9162 59.8287 31.4363 60.6744 31.1467 61.5911C30.8571 62.5079 30.7643 63.4752 30.8742 64.4301Z" fill="#253858"/>
<path d="M54.2373 21.9669C54.0566 23.4859 53.3745 24.9018 52.2983 25.9917C51.2221 27.0817 49.813 27.7836 48.2929 27.9871C46.8068 28.1767 45.2997 27.8696 44.0073 27.114C43.857 27.0214 43.6841 26.9717 43.5074 26.9702C43.3307 26.9686 43.1569 27.0154 43.005 27.1054C42.853 27.1953 42.7287 27.3251 42.6455 27.4805C42.5622 27.636 42.5232 27.8112 42.5327 27.9871V42.4173H28.0633C27.8869 42.4268 27.7112 42.3879 27.5553 42.3049C27.3995 42.2218 27.2694 42.0978 27.1791 41.9463C27.0889 41.7948 27.042 41.6215 27.0436 41.4453C27.0451 41.2691 27.095 41.0966 27.1878 40.9467C27.7764 39.91 28.0817 38.7374 28.073 37.5461C28.0644 36.3548 27.7421 35.1866 27.1385 34.1586C26.5349 33.1305 25.6711 32.2786 24.6336 31.6881C23.5961 31.0976 22.4212 30.7892 21.2267 30.7939C20.0321 30.7985 18.8597 31.116 17.8268 31.7145C16.794 32.313 15.9368 33.1716 15.3413 34.2043C14.7457 35.237 14.4326 36.4076 14.4332 37.599C14.4339 38.7903 14.7483 39.9606 15.345 40.9926C15.4259 41.1415 15.4661 41.3089 15.4616 41.4782C15.457 41.6474 15.408 41.8125 15.3193 41.9568C15.2305 42.1012 15.1053 42.2197 14.9562 42.3005C14.807 42.3813 14.6391 42.4216 14.4694 42.4173H0C0 31.1675 4.48111 20.3785 12.4575 12.4237C20.434 4.46895 31.2523 0 42.5327 0V0V14.4301C42.5232 14.6061 42.5622 14.7813 42.6455 14.9368C42.7287 15.0922 42.853 15.2219 43.005 15.3119C43.1569 15.4019 43.3307 15.4486 43.5074 15.4471C43.6841 15.4456 43.857 15.3959 44.0073 15.3033C45.0371 14.6888 46.2174 14.3706 47.4173 14.3842C48.3806 14.3851 49.333 14.5881 50.2125 14.9801C51.092 15.3721 51.8789 15.9443 52.5221 16.6595C53.1654 17.3746 53.6505 18.2168 53.946 19.1312C54.2415 20.0456 54.3407 21.0118 54.2373 21.9669Z" fill="#0065FF"/>
<path d="M85.0654 42.4173H70.596C70.4234 42.4164 70.2537 42.4615 70.1045 42.548C69.9553 42.6345 69.832 42.7592 69.7474 42.9092C69.6628 43.0592 69.6199 43.229 69.6233 43.4011C69.6267 43.5732 69.6761 43.7413 69.7665 43.8879C70.4894 45.1891 70.7798 46.6855 70.596 48.1618C70.3228 49.8415 69.4324 51.3596 68.0981 52.4203C66.7638 53.4809 65.0814 54.0081 63.3786 53.8991C61.6758 53.7901 60.0747 53.0527 58.8874 51.8306C57.7001 50.6086 57.0115 48.9894 56.956 47.2886C56.9495 46.0928 57.268 44.9176 57.8776 43.8879C57.9704 43.7379 58.0203 43.5655 58.0218 43.3893C58.0233 43.213 57.9765 43.0398 57.8862 42.8882C57.796 42.7367 57.6659 42.6127 57.5101 42.5297C57.3542 42.4467 57.1785 42.4078 57.0021 42.4173H42.5327V27.9871C42.5231 27.8112 42.5621 27.636 42.6454 27.4805C42.7286 27.3251 42.853 27.1953 43.0049 27.1054C43.1568 27.0154 43.3306 26.9686 43.5073 26.9702C43.684 26.9717 43.8569 27.0214 44.0072 27.114C45.2996 27.8696 46.8067 28.1767 48.2928 27.9871C49.9771 27.7148 51.4993 26.8267 52.5629 25.4961C53.6264 24.1654 54.155 22.4875 54.0457 20.7894C53.9364 19.0912 53.197 17.4945 51.9716 16.3104C50.7462 15.1262 49.1226 14.4396 47.4172 14.3842C46.2173 14.3706 45.037 14.6888 44.0072 15.3033C43.8569 15.3959 43.684 15.4456 43.5073 15.4471C43.3306 15.4486 43.1568 15.4019 43.0049 15.3119C42.853 15.2219 42.7286 15.0922 42.6454 14.9368C42.5621 14.7813 42.5231 14.6061 42.5327 14.4301V0C53.813 0 64.6314 4.46895 72.6078 12.4237C80.5843 20.3785 85.0654 31.1675 85.0654 42.4173Z" fill="#2684FF"/>
<path d="M107 69.5312C105.424 74.8753 102.807 79.8574 99.3004 84.1931C95.7934 88.5287 91.4644 92.133 86.5606 94.8002C81.6568 97.4673 76.2743 99.1451 70.7203 99.7376C65.1664 100.33 59.5498 99.8259 54.1912 98.2537L58.2924 84.375C58.3264 84.2109 58.319 84.0409 58.2709 83.8804C58.2227 83.7199 58.1353 83.5738 58.0165 83.4553C57.8977 83.3368 57.7512 83.2496 57.5902 83.2016C57.4293 83.1536 57.2588 83.1462 57.0943 83.1801C55.6441 83.5211 54.1217 83.3757 52.7627 82.7665C51.0639 82.1449 49.6823 80.8758 48.9218 79.2383C48.1614 77.6008 48.0843 75.7291 48.7076 74.0349C49.3309 72.3407 50.6035 70.9629 52.2454 70.2045C53.8874 69.446 55.7642 69.3692 57.463 69.9908C58.62 70.2985 59.6613 70.9376 60.4582 71.829C60.5819 71.946 60.7332 72.0299 60.8981 72.0731C61.063 72.1162 61.2361 72.1172 61.4014 72.076C61.5668 72.0348 61.7191 71.9526 61.8442 71.8372C61.9693 71.7217 62.0631 71.5767 62.1171 71.4154L66.1723 57.5367L80.0887 61.6268C80.2599 61.6599 80.4182 61.7407 80.5452 61.8599C80.6721 61.9791 80.7626 62.1318 80.806 62.3003C80.8495 62.4687 80.8441 62.646 80.7905 62.8115C80.737 62.977 80.6374 63.1239 80.5034 63.2353C79.6486 64.08 79.0155 65.1217 78.6602 66.2684C78.3859 67.1903 78.3107 68.1597 78.4396 69.1127C78.5685 70.0658 78.8986 70.9807 79.4081 71.7971C79.9176 72.6136 80.5949 73.313 81.3953 73.8493C82.1958 74.3855 83.1011 74.7464 84.0517 74.9081C85.5591 75.1658 87.1096 74.9176 88.4605 74.2024C89.8114 73.4872 90.8862 72.3454 91.5168 70.9559C92.0935 69.5746 92.2224 68.048 91.8854 66.59C91.8436 66.4224 91.8477 66.2466 91.8972 66.0811C91.9467 65.9155 92.0399 65.7662 92.167 65.6489C92.2941 65.5315 92.4505 65.4503 92.6199 65.4138C92.7892 65.3772 92.9652 65.3867 93.1296 65.4412L107 69.5312Z" fill="url(#paint0_linear_486_60869)"/>
<path d="M91.2401 41.8198L102.023 36.8106C102.072 36.774 102.133 36.7583 102.194 36.767C102.254 36.7756 102.309 36.8078 102.346 36.8566C102.382 36.9053 102.398 36.9666 102.389 37.0269C102.381 37.0873 102.348 37.1417 102.299 37.1783L95.4334 45.6801L97.4149 47.2885C97.4523 47.3113 97.4823 47.3443 97.5016 47.3835C97.5209 47.4227 97.5286 47.4666 97.5237 47.51C97.5189 47.5534 97.5017 47.5945 97.4743 47.6285C97.4469 47.6626 97.4103 47.6881 97.3688 47.7021L86.632 52.7113C86.3555 52.8492 86.1251 52.5275 86.3094 52.3437L93.1755 43.8419L91.194 42.2334C91.1566 42.2106 91.1266 42.1777 91.1073 42.1385C91.088 42.0993 91.0804 42.0554 91.0852 42.012C91.09 41.9686 91.1072 41.9275 91.1346 41.8934C91.162 41.8594 91.1986 41.8338 91.2401 41.8198Z" fill="#FFC400"/>
<path d="M94.8349 55.6066L100.641 56.7555C100.779 56.8014 100.779 56.9393 100.641 56.9852L95.3878 58.3639L95.7104 59.6047C95.7565 59.6507 95.6643 59.7426 95.5722 59.7426L89.766 58.5937C89.6738 58.5477 89.6277 58.3639 89.766 58.3639L95.0192 56.9852L94.6966 55.7444C94.6966 55.7263 94.7002 55.7084 94.7071 55.6917C94.7141 55.6749 94.7243 55.6597 94.7371 55.6469C94.75 55.6341 94.7652 55.624 94.782 55.6171C94.7987 55.6101 94.8167 55.6066 94.8349 55.6066Z" fill="#FFC400"/>
</g>
<defs>
<linearGradient id="paint0_linear_486_60869" x1="49.4233" y1="74.6404" x2="101.491" y2="89.8682" gradientUnits="userSpaceOnUse">
<stop stop-color="#FFAB00"/>
<stop offset="1" stop-color="#FFE380"/>
</linearGradient>
<clipPath id="clip0_486_60869">
<rect width="107" height="100" fill="white"/>
</clipPath>
</defs>
</svg>
