<svg width="960" height="80" fill="none" xmlns="http://www.w3.org/2000/svg"><path d="M96.93 55.35c-.558-2.724-1.116-5.448-1.672-8.173l-1.951-9.532-1.876-9.174-.764-3.738c-.019-.094-.029-.173-.17-.172-2.095.008-4.191.003-6.286.015-.694.004-1.367.135-1.994.457-.876.452-1.402 1.208-1.77 2.105l-11.58 28.19c-.025.061-.071.12-.057.2.032 0 .064.005.095.005 2.658 0 5.316.001 7.972.003.128 0 .168-.053.207-.163.506-1.439 1.02-2.875 1.524-4.314.047-.132.107-.17.242-.17 3.244.004 6.488.004 9.734 0 .126 0 .181.021.21.166.282 1.437.575 2.872.864 4.307.02.094.025.174.166.174 2.38-.006 4.76-.008 7.14-.007v-.116a.294.294 0 0 1-.035-.063Zm-9.601-10.788c-2.101-.003-4.202-.004-6.303-.002a.665.665 0 0 1-.083-.013c1.379-3.86 2.81-7.69 4.16-11.608.08.38.152.71.219 1.043.704 3.48 1.409 6.958 2.115 10.437.022.114.01.143-.108.143ZM69.257 44.042c-.266-1.656-1.07-3.019-2.233-4.178-1.154-1.15-2.513-1.994-3.946-2.726-1.082-.552-2.17-1.094-3.179-1.78-.39-.266-.757-.559-1.06-.925-.66-.793-.66-1.752 0-2.546.273-.323.608-.586.984-.773.816-.421 1.696-.567 2.597-.613 2.31-.116 4.517.314 6.612 1.322.127.06.257.116.391.176.017-.08.031-.135.038-.193.334-2.095.663-4.19 1.005-6.283.029-.175-.019-.232-.165-.286a19.11 19.11 0 0 0-5.227-1.171c-.177-.015-.362.012-.53-.066H62.27c-.014.055-.06.036-.092.039-.75.044-1.496.135-2.235.27-1.98.37-3.847 1.037-5.523 2.197-1.791 1.239-3.12 2.853-3.794 4.977-.41 1.292-.549 2.616-.34 3.963.235 1.528.97 2.798 2.007 3.898 1.075 1.14 2.355 1.992 3.708 2.74.842.464 1.718.862 2.55 1.35.719.421 1.423.86 1.982 1.498.787.897.827 2.101.103 3.034a3.135 3.135 0 0 1-.894.77c-.76.453-1.593.69-2.462.755-1.773.135-3.53 0-5.252-.474-1.313-.363-2.552-.917-3.775-1.51-.07-.035-.136-.088-.227-.086l-.087.561c-.33 2.083-.66 4.165-.992 6.247-.015.098.005.139.091.172.235.09.465.196.703.28 2.405.853 4.894 1.217 7.424 1.307 1.42.049 2.842-.052 4.242-.3 1.771-.312 3.465-.855 5.024-1.783 2.241-1.336 3.84-3.21 4.559-5.792.373-1.334.485-2.696.266-4.07ZM35.67 24.567c-2.614 0-5.227-.002-7.841-.005-.172 0-.245.046-.308.217-2.503 6.89-5.011 13.778-7.524 20.664-.022.06-.017.143-.1.175l-.316-1.61c-.179-.901-.358-1.802-.54-2.701.004-.039.008-.08-.028-.11-.006-.062-.009-.126-.02-.188l-1.01-5.255c-.553-2.859-1.095-5.723-1.665-8.58-.246-1.237-.958-2.074-2.182-2.411-.5-.134-1.014-.2-1.53-.196H.355a.28.28 0 0 1-.056 0c-.151-.032-.196.058-.217.188-.017.112-.02.229-.083.329v.116c1.1.27 2.175.628 3.242 1.013.852.31 1.689.66 2.507 1.05.86.402 1.7.851 2.514 1.343.004.017 0 .045.029.039-.02.065.01.123.025.182l3.313 12.744c1.19 4.576 2.38 9.153 3.567 13.73.042.164.106.208.265.207 2.632-.005 5.265-.005 7.897 0 .143 0 .22-.03.278-.18 4.06-10.182 8.121-20.362 12.185-30.541.087-.22.087-.22-.153-.22ZM46.73 24.56c-.99.006-1.981.003-2.972.003H39.25c-.098 0-.182-.009-.2.134-.041.325-.099.648-.151.972-.41 2.583-.818 5.167-1.227 7.75a6978.7 6978.7 0 0 1-1.043 6.55 4597.191 4597.191 0 0 1-2.439 15.367c-.032.2.034.2.182.199 1.237-.005 2.474-.003 3.712-.003h3.768c.118 0 .174-.019.195-.158.12-.814.251-1.626.379-2.439A82544.77 82544.77 0 0 1 46.9 24.754c.032-.184-.022-.194-.17-.193Z" fill="#172B4D"/><path d="M173.116 32.933c-6.507 0-11.592 4.94-11.592 11.553s4.956 11.51 11.592 11.51 11.678-4.981 11.678-11.552c0-6.57-4.956-11.51-11.678-11.51Zm.044 18.298c-3.706 0-6.421-2.878-6.421-6.743s2.671-6.786 6.377-6.786 6.463 2.92 6.463 6.786c0 3.865-2.715 6.743-6.421 6.743h.002Zm13.057-13.272h3.232v17.61h5.171V33.363h-8.403v4.596Zm-37.704-.257c2.715 0 4.869 1.675 5.687 4.166h5.474c-.992-5.325-5.387-8.933-11.118-8.933-6.508-.002-11.593 4.938-11.593 11.553 0 6.614 4.956 11.51 11.592 11.51 5.601 0 10.083-3.608 11.075-8.977h-5.43c-.775 2.491-2.93 4.21-5.645 4.21-3.75 0-6.377-2.878-6.377-6.743s2.585-6.786 6.335-6.786Zm135.951 4.64-3.792-.558c-1.81-.257-3.103-.859-3.103-2.277 0-1.546 1.682-2.318 3.965-2.318 2.499 0 4.094 1.073 4.439 2.834h4.998c-.561-4.467-4.008-7.086-9.307-7.086s-9.093 2.791-9.093 6.743c0 3.95 2.371 5.97 7.153 6.657l3.792.557c1.853.257 2.888.989 2.888 2.363 0 1.76-1.81 2.491-4.309 2.491-3.06 0-4.784-1.246-5.043-3.135h-5.084c.475 4.338 3.878 7.387 10.083 7.387 5.645 0 9.393-2.577 9.393-7.002 0-3.95-2.715-6.013-6.98-6.656Zm-92.431-18.127c-1.896 0-3.319 1.374-3.319 3.263 0 1.89 1.421 3.263 3.319 3.263 1.897 0 3.319-1.373 3.319-3.263s-1.423-3.263-3.319-3.263Zm75.883 16.75c0-4.809-2.93-8.03-9.135-8.03-5.86 0-9.135 2.964-9.782 7.517h5.128c.259-1.76 1.638-3.221 4.568-3.221 2.629 0 3.922 1.16 3.922 2.577 0 1.847-2.371 2.319-5.301 2.62-3.964.429-8.877 1.803-8.877 6.957 0 3.995 2.974 6.571 7.714 6.571 3.706 0 6.033-1.546 7.197-3.995.172 2.19 1.81 3.608 4.094 3.608h3.017v-4.595h-2.544V40.966h-.001Zm-5.085 5.585c0 2.964-2.585 5.154-5.731 5.154-1.94 0-3.578-.816-3.578-2.533 0-2.19 2.63-2.792 5.043-3.049 2.326-.215 3.619-.73 4.266-1.719v2.148-.001Zm-27.449-13.615c-2.887 0-5.3 1.203-7.024 3.221V24h-5.171v31.57h5.085v-2.921c1.723 2.104 4.18 3.35 7.11 3.35 6.205 0 10.903-4.897 10.903-11.511 0-6.615-4.784-11.553-10.903-11.553Zm-.775 18.297c-3.706 0-6.421-2.877-6.421-6.743 0-3.865 2.757-6.785 6.463-6.785s6.377 2.878 6.377 6.785c0 3.908-2.715 6.744-6.421 6.744h.002ZM210.82 32.934c-3.361 0-5.559 1.374-6.852 3.308v-2.878h-5.129v22.206h5.171V43.5c0-3.393 2.155-5.798 5.343-5.798 2.974 0 4.826 2.104 4.826 5.154V55.57h5.171v-13.1c0-5.584-2.888-9.536-8.532-9.536h.002Zm105.27 10.823c0-6.356-4.654-10.823-10.903-10.823-6.635 0-11.505 4.982-11.505 11.553 0 6.916 5.214 11.51 11.592 11.51 5.387 0 9.609-3.178 10.686-7.687h-5.387c-.776 1.976-2.672 3.093-5.215 3.093-3.319 0-5.818-2.062-6.377-5.67h17.107v-1.976h.002Zm-16.805-1.719c.819-3.092 3.146-4.595 5.818-4.595 2.93 0 5.171 1.675 5.688 4.595h-11.506Z" fill="#253858"/><path fill-rule="evenodd" clip-rule="evenodd" d="M356.09 68.256s1.122.407 2.38.407c1.36 0 2.175-.203 2.651-.68.374-.373.544-1.02.51-2.005v-6.391h2.006v6.698c-.034 2.957-1.461 4.215-4.793 4.215-1.632 0-2.754-.272-2.754-.272v-1.973Zm13.394-6.731c3.195 0 5.065 1.7 5.065 4.555 0 2.04-1.326 4.42-5.065 4.42-3.74 0-5.099-2.38-5.099-4.42-.001-2.855 1.903-4.555 5.099-4.555Zm3.093 4.454c0-1.734-1.121-2.72-3.093-2.72-1.973 0-3.127.987-3.127 2.72 0 2.413 1.971 2.754 3.127 2.754 1.155 0 3.093-.342 3.093-2.754Zm9.96-4.25v3.4h-5.133v-3.4h-1.971v8.567h1.971v-3.434h5.133v3.434h2.006v-8.567h-2.006Zm29.848 6.799v-1.666h4.555v-1.734h-4.555v-1.666h5.881V61.73h-7.887v8.567h7.887v-1.768h-5.881Zm8.907 0v-1.666h4.555v-1.734h-4.555v-1.666h5.915V61.73h-7.887v8.567h7.887v-1.768h-5.915Zm18.697 0v-1.666h4.555v-1.734h-4.555v-1.666h5.915V61.73h-7.888v8.567h7.888v-1.768h-5.915Zm-36.375-7.173c2.584 0 4.08 1.291 4.08 3.535 0 3.162-2.549 3.638-4.08 3.638h-2.822v-7.173h2.822Zm0-1.768h-4.793v10.709h4.793c4.488 0 6.051-2.856 6.051-5.27 0-3.4-2.277-5.44-6.051-5.44Zm31.275 7.445c1.53-.373 2.073-1.53 2.073-2.55 0-1.734-1.121-2.753-3.058-2.753h-5.609v8.566h1.971v-3.128h2.346l2.38 3.128h2.414l-2.517-3.263Zm-4.623-1.631v-1.939h3.638c.679 0 1.088.375 1.088.952 0 .85-.68.987-1.088.987h-3.638Zm-37.394 4.895-5.168-5.848v5.848h-1.971v-8.567h1.971l5.168 5.78v-5.78h1.972v8.567h-1.972ZM419.821 16.075c-5.644-2.605-12.032-3.97-18.483-3.97-6.451 0-12.777 1.365-18.483 3.97-1.86 4.837-2.853 9.923-2.853 15.071s.993 10.296 2.853 15.134c5.706 2.604 12.095 3.968 18.483 3.968 6.389 0 12.777-1.363 18.483-3.968-1.239-2.233-3.163-4.218-3.286-4.28-.248-.062-5.272-1.613-7.009-2.48-1.427-.745-2.853-2.482-3.039-2.668a18.726 18.726 0 0 0-4.156.062c-1.798.249-3.721.559-5.582.249-1.054-.124-2.109-.496-3.225-.807-1.612-.558-3.349-1.116-5.272-1.116.248.496 1.923 3.597 4.28 4.342 0 0 .744.186.992.372l.992 1.923s-5.271-2.605-8.745-6.885l-.124-.806c2.109-.806 4.28-.992 6.451-1.178 0 0 .496-.062.558-.062.311-2.544.992-4.776 1.985-6.823.186-.248-.123-.31-.123-.31-.807-.185-2.916-.62-2.916-.62l-.309-.868c2.108-.807 4.713-1.489 6.387-1.86.248-.373.372-.745.372-.993a.797.797 0 0 0-.248-.62c-.806-.992-4.032-.683-7.504.62l-.063-.062c.559-.497 1.552-1.055 2.357-1.427-.248-1.055-1.612-1.488-1.612-1.488v-.125c1.178.124 2.047.62 2.481 1.24.931-.247 1.365-.371 2.109-.433-.062-1.55-1.613-2.668-1.613-2.668l.063-.061c1.426.496 2.48 1.488 2.852 2.73a4.99 4.99 0 0 1 1.675.247c.186-.434.247-.93.247-1.365 0-1.488-.991-2.604-1.054-2.666l.125-.063c1.799.93 2.233 2.481 2.233 3.908 0 1.303-.373 2.48-.497 2.791 0 0 2.047-.371 3.597-.558-.062.124-.744 1.054-2.604 2.047l-1.489-.186c-.124.371-.992 3.1-.992 5.148 0 .682.186 1.302.62 1.674.744.683 1.985.744 2.791.744 5.893-.248 8.435.559 8.808.745.062-.124.123-.434.123-.868 0-.869-.248-2.233-1.612-3.908l.062-.062c.062 0 3.536 1.86 3.969 4.775l-1.55.621c1.365 1.427 1.86 3.163 2.232 4.59.311.993.558 1.86 1.055 2.295.62.558 3.102 1.86 3.163 1.86 0 0 .744.93 2.542 4.033a41.504 41.504 0 0 0 2.357-13.832c0-5.148-.992-10.234-2.852-15.071l-.002-.002Z" fill="#253858"/><path fill-rule="evenodd" clip-rule="evenodd" d="M421.993 14.152C415.791 11.174 408.72 9.5 401.339 9.5s-14.451 1.674-20.653 4.713c-2.172 5.21-3.35 10.979-3.35 16.933a44.632 44.632 0 0 0 3.35 16.995 47.847 47.847 0 0 0 20.653 4.713 47.852 47.852 0 0 0 20.654-4.713 44.2 44.2 0 0 0 3.412-16.995c-.001-5.954-1.241-11.722-3.412-16.994Zm-1.489 32.687c-5.706 2.729-12.343 4.217-19.165 4.217-6.822 0-13.397-1.488-19.165-4.217-1.923-4.838-2.977-10.172-2.977-15.692s1.055-10.792 2.977-15.692a45.863 45.863 0 0 1 19.165-4.218c6.822 0 13.397 1.55 19.165 4.218 1.923 4.9 3.039 10.172 3.039 15.692S422.488 42 420.504 46.839Z" fill="#253858"/><g clip-path="url(#a)"><path fill-rule="evenodd" clip-rule="evenodd" d="M534.831 33.63a9.053 9.053 0 0 1 2.417 4.607 9.155 9.155 0 0 1-.502 5.198 8.97 8.97 0 0 1-3.253 4.037 8.72 8.72 0 0 1-4.907 1.517 8.72 8.72 0 0 1-4.907-1.517 8.961 8.961 0 0 1-3.252-4.037 9.147 9.147 0 0 1-.503-5.198 9.053 9.053 0 0 1 2.417-4.607 8.818 8.818 0 0 1 2.865-1.953 8.68 8.68 0 0 1 6.761 0 8.814 8.814 0 0 1 2.864 1.953ZM528.586 25a14.61 14.61 0 0 1 10.423 4.404 15.165 15.165 0 0 1 4.315 10.622 15.165 15.165 0 0 1-4.32 10.618 14.613 14.613 0 0 1-10.426 4.399c-3.91 0-7.66-1.582-10.425-4.398a15.162 15.162 0 0 1-4.321-10.62 15.165 15.165 0 0 1 4.315-10.621A14.61 14.61 0 0 1 528.57 25h.016Zm37.131 8.63a9.045 9.045 0 0 1 2.417 4.607 9.155 9.155 0 0 1-.502 5.198 8.97 8.97 0 0 1-3.253 4.037 8.717 8.717 0 0 1-4.907 1.517 8.716 8.716 0 0 1-4.906-1.517 8.957 8.957 0 0 1-3.253-4.037 9.147 9.147 0 0 1-.503-5.198 9.053 9.053 0 0 1 2.417-4.607 8.818 8.818 0 0 1 2.865-1.953 8.68 8.68 0 0 1 6.761 0 8.814 8.814 0 0 1 2.864 1.953Zm4.164-4.24a15.12 15.12 0 0 1 4.246 9.133 15.216 15.216 0 0 1-2.405 9.805 14.754 14.754 0 0 1-7.965 6.026 14.475 14.475 0 0 1-9.91-.488 14.832 14.832 0 0 1-7.357-6.781 15.248 15.248 0 0 1-1.464-9.996 15.053 15.053 0 0 1 5.092-8.674A14.562 14.562 0 0 1 559.456 25a14.488 14.488 0 0 1 5.641 1.137 14.718 14.718 0 0 1 4.784 3.252ZM491.794 54.9l1.468.083h22.076l-.081-1.496c-.194-2.466-1.92-4.274-4.341-4.422l-1.468-.082h-13.233L513.869 31l-.08-1.496c-.113-2.482-1.905-4.29-4.341-4.422l-1.469-.066h-22.075l.08 1.496c.194 2.433 1.937 4.274 4.341 4.422l1.469.082h13.248l-17.67 17.968.081 1.495c.145 2.466 1.904 4.258 4.341 4.422Zm100.743-20.91c.5.889.662 1.875.726 3.009l.081 1.496v10.488l.081 1.495c.145 2.45 1.92 4.274 4.34 4.422l1.469.083V38.496l.08-1.496c.065-1.118.21-2.137.727-3.025a5.934 5.934 0 0 1 2.158-2.18 5.805 5.805 0 0 1 2.938-.794 5.808 5.808 0 0 1 2.935.803 5.943 5.943 0 0 1 2.151 2.188c.5.888.662 1.907.71 2.992l.081 1.495v10.505l.08 1.495c.146 2.466 1.905 4.274 4.341 4.422l1.469.083V37a12.146 12.146 0 0 0-2.088-6.813 11.803 11.803 0 0 0-5.52-4.396 11.563 11.563 0 0 0-6.995-.42 11.73 11.73 0 0 0-5.988 3.706 11.713 11.713 0 0 0-7.342-3.965 11.613 11.613 0 0 0-8.085 1.96c-1.146-1.3-3.711-2.056-5.18-2.056V55l1.469-.082c2.452-.165 4.244-1.94 4.34-4.422l.081-1.496V38.512l.081-1.496c.064-1.134.21-2.12.726-3.008a5.908 5.908 0 0 1 2.15-2.182 5.772 5.772 0 0 1 2.933-.793 5.698 5.698 0 0 1 2.918.784 5.83 5.83 0 0 1 2.133 2.175Z" fill="#253858"/></g><g clip-path="url(#b)" fill="#172B4D"><path d="M738.118 28.5h-.771v22h.771v-22ZM723.609 34.15h-3.391v10.954h3.391c3.612 0 5.927-2.196 5.927-5.467 0-3.27-2.315-5.466-5.927-5.466v-.021Zm-.111 9.627h-1.711v-8.26h1.711c3.039 0 4.451 1.697 4.451 4.13 0 2.432-1.412 4.13-4.451 4.13Zm-11.476-1.995-7.38-7.924v11.213h1.455v-7.563l7.377 7.921V34.192h-1.452v7.59Zm-55.118-2.126c0 3.283 2.312 5.466 5.927 5.466h4.026V39.44H665.3v4.316h-2.358c-3.039 0-4.451-1.674-4.451-4.13 0-2.458 1.412-4.131 4.451-4.131h3.915V34.15h-4.026c-3.615 0-5.927 2.192-5.927 5.466v.04Zm25.307-2.175c0-2.43-1.695-3.322-4.645-3.322h-3.369v10.954h1.541v-9.618h1.766c2.269 0 3.126.404 3.132 1.977 0 1.573-.863 1.977-3.132 1.977h-1.051l4.648 5.646h1.961s-3.835-4.422-3.804-4.425c1.896-.322 2.95-1.285 2.956-3.198l-.003.01Zm6.288 7.617h1.517l1.187-2.588h4.966l1.165 2.588h1.627l-5.24-11.285-5.222 11.285Zm3.428-4.167 1.785-3.869 1.754 3.878-3.539-.009ZM790.493 35.304h4.065v9.676h1.579v-9.676h3.955v-1.355h-9.599v1.355Zm14.86-1.355v1.355h4.097v9.676h1.578v-9.676h4.137v-1.355h-9.812Zm-38.814 5.619-3.675-5.622h-1.741l4.593 7.21v3.827h1.572v-3.87l4.5-7.167h-1.686l-3.563 5.622Zm8.717 5.412h1.541l1.255-2.466h5.668l1.233 2.466h1.643l-5.671-11.425-5.669 11.425Zm3.585-4.045 2.065-4.07 2.025 4.07h-4.09ZM753.829 39.043h-5.927v-5.09h-1.575V44.99h1.575V40.4h5.927v4.59h1.579V33.953h-1.579v5.09ZM817.816 33.955a1.076 1.076 0 0 0-.789.285 1.044 1.044 0 0 0-.245 1.175 1.045 1.045 0 0 0 .61.57c.135.048.28.07.424.062a1.076 1.076 0 0 0 .789-.285 1.045 1.045 0 0 0 .332-.761 1.037 1.037 0 0 0-.332-.76 1.065 1.065 0 0 0-.789-.286Zm0 1.91a.885.885 0 0 1-.485-.15.867.867 0 0 1-.318-.39.852.852 0 0 1 .2-.938.878.878 0 0 1 .956-.178.869.869 0 0 1 .532.802.821.821 0 0 1-.543.802.851.851 0 0 1-.342.052Z"/><path d="M818.342 35.566c-.099-.116-.339-.392-.385-.45a.312.312 0 0 0 .23-.1.301.301 0 0 0 .078-.237c0-.24-.154-.35-.49-.35h-.358v1.149h.179v-.997h.176c.24 0 .308.05.308.198 0 .149-.074.197-.308.197h-.13l.493.608h.225l-.018-.019Z"/></g><path d="M936.326 41.024c.508-.018 1.759.145 4.47.248 2.837.109 3.4-2.11 3.286-3.483-2.891.63-3.579.792-6.075.792-2.621 0-5.847.738-5.907 3.066-.06 2.31 2.933 2.83 4.489 3.27.431.103.592.454.305.684-.664.538-2.166 1.245-2.346 2.509-.251 1.79 1.359 3.192 3.405 3.15 2.723-.055 5.728-1.227 8.618-4.728.814-.992 1.73-2.66 2.299-3.398.137-.266.526-.393.694-.375.515.115 1.245.508 1.149 1.076-.15.865-2.484 3.568-.928 5.194.958.997 3.364 1.723 5.279.314 1.795-1.318 1.161-2.52.449-2.612-.509-.06-1.927 1.742-3.076.454-.952-1.064 1.31-3.271 1.765-4.063.652-1.137-1.885-1.99-2.95-3.398-.689-.925 1.095-3.772-1.138-4.522-.73-.248-2.986 1.124-2.184 5.066-1.023 3.894-8.833 10.708-9.875 7.963-.251-.671.419-1.784 2.209-2.159 2.956-.622 2.723-2.466 1.31-2.654-2.214-.29-2.831-.29-5.47-.913-1.035-.108-.999-1.505.222-1.48ZM893.687 45.518c-.71.716-1.529 1.713-1.636 2.513-.239 1.737.657 3.27 2.867 3.23 2.372-.043 3.155-1.762 7.121-4.173 1.112-.675 2.486-1.815 3.053-1.904.221 0 .538.066.514.483-.335 1.582-.705 2.645-.293 4 .287.948 1.548 1.545 2.456.859 1.517-1.146 1.535-1.797 3.501-4.375.322-.43 1.517-2.388 2.067-2.125.46.215.328.853.245 1.349-.413 2.417-1.464 6.231 3.315 5.646 1.135-.137 2.049-.907 1.189-1.719-.52-.49-1.105-.137-1.762-.286-1.536-.352 2.258-7.336.448-8.631-2.545-1.82-4.905 1.409-6.673 3.76-.699.931-1.213.52-1.667-.788-.502-1.456-3.531-.393-5.269.502-2.772 1.426-7.892 6.207-8.364 3.826-.084-.412.585-1.331 1.828-1.785 1.457-.531 3.112-1.003 3.112-1.88 0-.68-.412-1.158-.848-1.134-2.037.113-4.409.65-7.121-.096-.616-.006-.884-1.557.95-1.355.484.054 1.565.126 5.669.21 2.892.059 2.951-2.102 2.563-3.254-2.402.717-3.626.633-6.171.633-2.671 0-6.261.37-6.112 2.937.132 2.16 3.167 2.757 4.738 2.93.466-.03.603.4.28.627Z" fill="#253858" stroke="#253858" stroke-width="1.207" stroke-miterlimit="3.864"/><path fill-rule="evenodd" clip-rule="evenodd" d="M884.646 39.596c.242-.914.769-1.12 1.461-1.284 1.029-.345 2.472-.805 3.359-.968 2.236-.564 2.88-.43 3.17-2.017.201-1.102-.266-1.629-.266-1.629s-4.879 1.563-5.855 1.841c-.852.375-.692-.539-.692-.539s-.124.581.408-1.786c1.597-7.194.662-9.113-.609-10.21-3.218-2.724-14.952 2.92-23.35 9.707-2.798 2.489-4.418 3.07-2.597 5.062 1.621 1.66 2.674.418 2.674.418 1.543-1.247 4.867-4.735 7.056-6.394 3.116-2.362 7.416-5.77 11.225-6.679 3.022-.781 3.933.127 3.525 3.276-.237 2.707-2.271 8.798-2.271 8.798s-3.123 1.43-4.051 1.786c-.728.279-1.503.085-1.586 1.787-.035 1.822 1.041 1.138 1.769.86.562-.219 1.881-.854 2.372-1.066.366-.29.768-.043.567.496-.366 1.205-1.023 3.155-2.271 5.977-1.579 3.857-4.418 9.13-4.785 10.457.042.872.976.993 2.201 1.011 1.129-.09 1.65-.89 1.65-.89s1.466-3.227 3.726-8.92c1.65-4.135 2.72-7.55 3.17-9.094Z" fill="#253858" stroke="#253858" stroke-width="1.207" stroke-miterlimit="3.864"/><path d="M926.086 41.15c-1.776-.517-3.331 1.604-3.786 3.495-.412 1.724-.197 4.038 1.352 4.339 1.238.24 2.679-.856 3.05-2.874.095-.543.328-2.272.394-2.712.425-2.747.748-3.946.748-3.946 1.483-5.73 5.041-16.877 6.01-17.528 1.004-.675 3.773-.79 2.906 1.536-1.346 3.615-2.912 6.821-4.33 11.28-1.662 5.23-4.879 13.623-2.009 13.997 1.34.174 1.884-1.073 2.691-.44 1.232.97-.114 2.723-2.488 2.958-3.265.12-3.193-1.807-4.64-.976-4.641 2.657-7.499-1.06-6.584-5.712.783-3.989 3.833-6.803 7.236-5.08 0 0 .873.435.801 1.182-.066.566-.496.68-1.351.482Z" fill="#253858" stroke="#253858" stroke-width="1.207" stroke-miterlimit="3.864"/><path fill-rule="evenodd" clip-rule="evenodd" d="M956.985 36.248c.328 0 .569.03.724.092.272.111.408.34.408.673 0 .234-.087.407-.26.525a.966.966 0 0 1-.384.13c.211.03.359.116.458.258a.708.708 0 0 1 .143.408v.19c0 .063 0 .13.006.198a.378.378 0 0 0 .025.136l.018.031h-.439c0-.006-.006-.019-.006-.025 0-.006-.007-.018-.007-.03l-.012-.087v-.21c0-.308-.08-.506-.247-.605-.099-.055-.273-.086-.52-.086h-.371v1.043h-.471v-2.648h.935v.007Zm.501.42c-.118-.069-.303-.1-.563-.1h-.396v.957h.421c.198 0 .346-.018.445-.062a.411.411 0 0 0 .272-.413c0-.191-.062-.315-.179-.383Zm1.256 2.622c-.47.475-1.04.71-1.714.71a2.304 2.304 0 0 1-1.708-.71 2.326 2.326 0 0 1-.699-1.71c0-.666.235-1.227.706-1.703a2.323 2.323 0 0 1 1.701-.703c.668 0 1.237.234 1.714.703.47.47.705 1.037.705 1.704.006.666-.235 1.234-.705 1.71Zm-3.18-3.178a2.012 2.012 0 0 0-.607 1.469c0 .58.205 1.067.6 1.475a2 2 0 0 0 1.473.61 2.01 2.01 0 0 0 1.473-.61 2.03 2.03 0 0 0 .606-1.475c0-.574-.204-1.062-.606-1.47a2.01 2.01 0 0 0-1.473-.61c-.569 0-1.058.204-1.466.61Z" fill="#253858"/><defs><clipPath id="a"><path fill="#fff" transform="translate(485.904 25)" d="M0 0h131v30H0z"/></clipPath><clipPath id="b"><path fill="#fff" transform="translate(656.904)" d="M0 0h162v80H0z"/></clipPath></defs></svg>