<svg width="100" height="100" viewBox="0 0 100 100" fill="none" xmlns="http://www.w3.org/2000/svg">
<g clip-path="url(#clip0_486_60863)">
<rect width="100" height="100" fill="white" fill-opacity="0.01"/>
<path d="M63.2104 70.2582L58.4746 65.5909L65.005 59.0367L69.7408 63.7041C70.9465 64.8871 72.47 65.6976 74.1276 66.0377C75.7813 66.4173 77.2987 67.2417 78.5145 68.4211L97.7568 87.3386C99.1552 88.7199 99.9501 90.595 99.9688 92.5565C99.9875 94.5181 99.2284 96.4079 97.8565 97.8153C96.4631 99.2016 94.5769 99.9843 92.6075 99.9936C90.6381 100.003 88.7445 99.238 87.338 97.8649L68.0957 78.9474C66.8872 77.7471 66.0409 76.2333 65.6531 74.578C65.2942 72.9259 64.4429 71.4202 63.2104 70.2582Z" fill="#CFD4DB"/>
<path d="M63.2108 70.2582L61.7651 68.8183C61.3325 68.3934 60.989 67.887 60.7546 67.3287C60.5201 66.7704 60.3994 66.1713 60.3994 65.5661C60.3994 64.9609 60.5201 64.3618 60.7546 63.8035C60.989 63.2452 61.3325 62.7388 61.7651 62.3139C62.1884 61.8797 62.6942 61.5337 63.2529 61.296C63.8117 61.0582 64.4123 60.9333 65.0199 60.9287C65.6275 60.9241 66.2299 61.0398 66.7922 61.269C67.3546 61.4983 67.8655 61.8366 68.2955 62.2642L69.7412 63.7041C70.9468 64.8872 72.4703 65.6976 74.128 66.0378C75.7817 66.4174 77.2991 67.2418 78.5148 68.4211L97.7571 87.3387C99.1556 88.72 99.9505 90.595 99.9692 92.5566C99.9878 94.5182 99.2288 96.4079 97.8568 97.8153C96.4634 99.2016 94.5772 99.9844 92.6078 99.9937C90.6384 100.003 88.7449 99.238 87.3384 97.865L68.0961 78.9474C66.8876 77.7472 66.0413 76.2334 65.6534 74.578C65.2946 72.9259 64.4432 71.4203 63.2108 70.2582Z" fill="url(#paint0_linear_486_60863)"/>
<g style="mix-blend-mode:multiply">
<path d="M65.6036 74.4291C65.2204 72.8404 64.3904 71.3936 63.2108 70.2582L61.7651 68.8183C61.3325 68.3934 60.989 67.887 60.7546 67.3287C60.5201 66.7704 60.3994 66.1713 60.3994 65.5661C60.3994 64.9609 60.5201 64.3618 60.7546 63.8035C60.989 63.2452 61.3325 62.7388 61.7651 62.3139C62.1884 61.8797 62.6942 61.5337 63.2529 61.296C63.8117 61.0582 64.4123 60.9333 65.0199 60.9287C65.6275 60.9241 66.2299 61.0398 66.7922 61.269C67.3546 61.4983 67.8655 61.8366 68.2955 62.2642L69.7412 63.7041C70.8884 64.8494 72.3419 65.6422 73.9286 65.9881C72.7609 67.6006 71.4781 69.1272 70.0901 70.5562C68.6886 71.9514 67.1893 73.2456 65.6036 74.4291Z" fill="#FFE380"/>
</g>
<path d="M77.5172 38.3317C77.4559 30.7007 75.1268 23.2587 70.8237 16.9447C66.5206 10.6307 60.4363 5.7276 53.3385 2.85408C46.2407 -0.0194379 38.4475 -0.734646 30.942 0.798697C23.4365 2.33204 16.5552 6.04523 11.1662 11.4698C7.58113 15.068 4.74821 19.3388 2.83147 24.0349C0.914734 28.731 -0.0477557 33.7591 -0.000278521 38.8283C0.0204902 43.8963 1.04878 48.91 3.02524 53.5802C5.00169 58.2503 7.88718 62.4843 11.5152 66.0378C16.9734 71.3938 23.902 75.0194 31.4269 76.4573C38.9518 77.8951 46.7357 77.0807 53.7963 74.1168C60.857 71.1529 66.878 66.1724 71.0996 59.8036C75.3213 53.4349 77.5544 45.9633 77.5172 38.3317Z" fill="#0065FF"/>
<path d="M17.7463 17.9245C21.1565 14.4856 25.3656 11.9374 30.0006 10.5055C34.6357 9.07372 39.5537 8.80247 44.3191 9.71583C49.0846 10.6292 53.5503 12.699 57.3209 15.7418C61.0915 18.7847 64.0505 22.7068 65.9358 27.1607C67.8212 31.6146 68.5748 36.4628 68.1297 41.276C67.6847 46.0892 66.0549 50.7189 63.3846 54.7549C60.7142 58.7909 57.0859 62.1088 52.8208 64.4146C48.5557 66.7204 43.7855 67.943 38.9327 67.9742C33.1058 67.988 27.4048 66.2864 22.5458 63.083C17.6869 59.8796 13.8868 55.3174 11.623 49.9695C9.35916 44.6216 8.73263 38.7266 9.8221 33.0252C10.9116 27.3238 13.6684 22.0702 17.7463 17.9245Z" fill="#DEEBFF"/>
<path d="M20.04 16.3357C17.0651 18.8081 14.6157 21.8471 12.8352 25.2746C11.0547 28.7021 9.97899 32.4491 9.67114 36.296C9.02243 44.0576 11.493 51.7585 16.5402 57.7073C21.5874 63.6561 28.7987 67.3666 36.5904 68.0239C42.4072 68.5281 48.2432 67.2994 53.3577 64.4938C58.4721 61.6882 62.6342 57.4323 65.3157 52.2662C67.9972 47.1002 69.077 41.257 68.4182 35.4786C67.7593 29.7001 65.3915 24.247 61.6153 19.8114C59.1176 16.8596 56.0597 14.4277 52.6169 12.655C49.174 10.8823 45.4139 9.80362 41.5518 9.48075C37.6897 9.15788 33.8016 9.59718 30.1102 10.7735C26.4188 11.9498 22.9968 13.8399 20.04 16.3357Z" fill="#B2D4FF"/>
<path d="M39.232 13.0587C35.374 12.7334 31.4895 13.1714 27.8021 14.3473C24.1148 15.5233 20.6973 17.414 17.7464 19.9107C16.0125 21.362 14.4564 23.012 13.1104 24.8263C10.7828 29.1152 9.5648 33.9142 9.56641 38.7896C9.56801 43.665 10.7892 48.4632 13.1195 52.7506C15.4499 57.038 18.8161 60.6795 22.9138 63.3461C27.0116 66.0128 31.7119 67.6204 36.5899 68.0239C40.4533 68.3737 44.348 67.9523 48.0458 66.7843C51.7437 65.6162 55.1704 63.7251 58.1253 61.2215C59.8476 59.7395 61.4021 58.0746 62.7614 56.2563C65.0767 51.9619 66.2835 47.1613 66.273 42.2869C66.2625 37.4124 65.0352 32.6171 62.7014 28.3325C60.3677 24.048 57.0008 20.4088 52.9039 17.7426C48.807 15.0763 44.1087 13.4667 39.232 13.0587Z" fill="#DEEBFF"/>
<path d="M38.7334 57.0507L60.2688 35.6008H45.9119L38.7334 57.0507Z" fill="#0065FF"/>
<path d="M31.6045 35.6008L38.7331 57.0507L45.9116 35.6008H31.6045Z" fill="#2684FF"/>
<path d="M17.248 35.6008L38.7336 57.0507L31.605 35.6008H17.248Z" fill="#B2D4FF"/>
<path d="M53.0906 26.4647L45.9121 35.6008H60.269L53.0906 26.4647Z" fill="#2684FF"/>
<path d="M38.7331 26.4647L31.6045 35.6008H45.9116L38.7331 26.4647Z" fill="#4C9AFF"/>
<path d="M31.6052 35.6008L38.7338 26.4647H24.4268L31.6052 35.6008Z" fill="#B2D4FF"/>
<path d="M45.9119 35.6008L53.0903 26.4647H38.7334L45.9119 35.6008Z" fill="#0065FF"/>
<path d="M24.4265 26.4647L17.248 35.6008H31.605L24.4265 26.4647Z" fill="white"/>
<path d="M24.4265 31.5789C24.7036 30.3356 25.3281 29.1957 26.2278 28.2908C27.1275 27.3859 28.2658 26.7528 29.5113 26.4647C28.2645 26.1971 27.1216 25.577 26.2197 24.6787C25.3178 23.7804 24.6952 22.642 24.4265 21.4001C24.1466 22.6369 23.5203 23.7691 22.6202 24.6656C21.7202 25.562 20.5834 26.1858 19.3418 26.4647C20.5847 26.7582 21.7201 27.3931 22.6189 28.2971C23.5177 29.2011 24.144 30.3381 24.4265 31.5789Z" fill="#4C9AFF"/>
<path d="M54.5864 57.0506C54.7898 56.1535 55.2443 55.3322 55.8972 54.6819C56.5501 54.0316 57.3747 53.5789 58.2753 53.3763C57.3797 53.163 56.5609 52.7067 55.9098 52.0582C55.2586 51.4096 54.8006 50.5941 54.5864 49.702C54.383 50.5991 53.9285 51.4204 53.2756 52.0707C52.6227 52.721 51.7981 53.1737 50.8975 53.3763C51.8007 53.5734 52.6283 54.0242 53.2821 54.6754C53.9359 55.3267 54.3886 56.1509 54.5864 57.0506Z" fill="white"/>
</g>
<defs>
<linearGradient id="paint0_linear_486_60863" x1="99.9804" y1="80.4618" x2="60.4092" y2="80.4618" gradientUnits="userSpaceOnUse">
<stop stop-color="#FF991F"/>
<stop offset="1" stop-color="#FFC400"/>
</linearGradient>
<clipPath id="clip0_486_60863">
<rect width="100" height="100" fill="white"/>
</clipPath>
</defs>
</svg>
