<svg width="24" height="21" viewBox="0 0 24 21" fill="none" xmlns="http://www.w3.org/2000/svg">
<path fill-rule="evenodd" clip-rule="evenodd" d="M16.4786 3.2765C15.1428 1.25724 12.8955 0 10.4299 0C6.63506 0 3.51747 2.95097 3.17207 6.72114C1.29746 7.44955 0 9.2954 0 11.4132C0 13.6952 1.49564 15.6217 3.54375 16.2328C3.87678 15.2062 4.64794 14.3742 5.64682 13.9847C5.89537 11.2618 8.13887 9.13055 10.8697 9.13055C12.6441 9.13055 14.2612 10.0386 15.2226 11.4969C15.463 11.4581 15.7074 11.4386 15.9542 11.4386C18.3452 11.4386 20.3175 13.2695 20.6003 15.6336C22.6255 14.5119 24 12.327 24 9.81537C24 6.15943 21.0878 3.1957 17.4953 3.1957C17.1524 3.1957 16.8127 3.2228 16.4786 3.2765Z" fill="#79E2F2"/>
<path opacity="0.5" d="M10.8698 9.13049C12.6441 9.13049 14.2613 10.0385 15.2226 11.4969C15.463 11.4581 15.7075 11.4385 15.9542 11.4385C18.5394 11.4385 20.6352 13.579 20.6352 16.2194C20.6352 18.8334 18.5811 20.9574 16.0316 20.9996L15.9542 21.0002H6.91519C4.954 21.0002 3.36414 19.3764 3.36414 17.3734C3.36414 15.8438 4.29782 14.5107 5.64684 13.9847C5.8954 11.2618 8.1389 9.13049 10.8698 9.13049Z" fill="#79E2F2"/>
</svg>
